<svg fill="none" xmlns="http://www.w3.org/2000/svg" viewBox="10 10 200 26.1">
    <path d="M16.5789 10L10 22.9386V36.0965H29.6272L36.2061 22.9386V10H16.5789Z" fill="#282828"></path>
    <path d="M42.6754 10L36.2061 22.9386V36.0965H45.9648L52.5438 29.6272V36.0965H62.4122L75.5701 10H68.9911L62.4122 16.4693V10H55.8332L49.2543 16.4693V10H42.6754Z" fill="#282828"></path>
    <path d="M78.8596 10L65.7017 36.0965H75.5701L82.0394 29.6272V36.0965H91.9078L101.776 10H95.1973L88.6183 16.4693V10H78.8596Z" fill="#282828"></path>
    <path d="M105.066 22.9386V36.0965H114.934L118.114 29.5175L131.272 22.9386V10H111.645L105.066 22.9386Z" fill="#282828"></path>
    <path d="M137.851 10L124.803 36.0965H134.562L141.14 29.6272V36.0965H150.899L157.478 22.9386V10H137.851Z" fill="#282828"></path>
    <path d="M157.588 22.9386V36.0965H177.215V22.9386L183.794 10H164.167L157.588 22.9386Z" fill="#282828"></path>
    <path d="M177.324 36.0965H187.083L193.553 29.6272L193.662 36.0965H203.421V22.9386L210 10H203.421L196.842 16.5789L196.952 10H190.373L177.324 36.0965Z" fill="#282828"></path>
</svg>
